<svg width="595" height="21" viewBox="0 0 595 21" fill="none" xmlns="http://www.w3.org/2000/svg">
<path d="M444.933 6.69325C394.394 6.4681 343.862 6.35322 293.32 6.45091C263.199 7.12044 233.044 7.70382 202.78 7.9091C169.092 8.13761 114.499 7.41404 80.8542 8.64305C62.0962 8.67669 122.591 7.72951 133.375 7.58888C186.717 6.89327 240.025 6.55392 293.32 6.45091C351.283 5.16248 409.12 3.55503 467.357 3.7092C482.742 3.74993 533.199 2.46512 517.906 3.61852C508.126 4.3562 493.74 4.78438 483.942 5.1769C470.941 5.69774 457.938 6.20345 444.933 6.69325Z" fill="#C02525"/>
<path d="M592.007 7.56613C439.061 6.52928 286.363 5.59384 133.375 7.58888C122.591 7.72951 62.0962 8.67669 80.8541 8.64304C114.499 7.41404 169.092 8.13761 202.78 7.9091C291.283 7.30878 378.857 3.47492 467.357 3.7092C482.742 3.74993 533.199 2.46512 517.906 3.61852C508.126 4.3562 493.74 4.78438 483.942 5.1769C430.022 7.337 376.072 9.23681 322.11 10.8206C215.804 13.9406 109.409 16.5791 3.02536 18.0566" stroke="white" stroke-width="5" stroke-linecap="round"/>
</svg>
