<svg width="320" height="20" viewBox="0 0 320 20" fill="none" xmlns="http://www.w3.org/2000/svg">
<path d="M238.595 6.32757C211.652 6.02108 184.713 5.82162 157.769 5.82844C141.711 6.42575 125.634 6.9394 109.5 7.08594C91.5407 7.24905 62.4376 6.45181 44.5 7.58594C34.5 7.58594 66.751 6.77204 72.5 6.65435C100.938 6.07214 129.357 5.83562 157.769 5.82844C188.671 4.67897 219.505 3.21969 250.552 3.4707C258.754 3.53701 285.654 2.37799 277.5 3.4707C272.285 4.16955 264.616 4.56005 259.392 4.92391C252.461 5.40674 245.528 5.87488 238.595 6.32757Z" fill="#C02525"/>
<path d="M317 7.4307C235.464 6.15821 154.061 4.98457 72.5 6.65435C66.751 6.77204 34.5 7.58594 44.5 7.58594C62.4376 6.4518 91.5407 7.24905 109.5 7.08594C156.682 6.65742 203.372 3.08926 250.552 3.4707C258.754 3.53701 285.654 2.37799 277.5 3.4707C272.285 4.16955 264.616 4.56005 259.392 4.92391C230.645 6.92633 201.882 8.67611 173.113 10.1191C116.437 12.9619 59.715 15.3373 3 16.5859" stroke="white" stroke-width="5" stroke-linecap="round"/>
</svg>
